<svg width="1500" height="2000" version="1.1" xmlns="http://www.w3.org/2000/svg" desc="Created with imagetracer.js version 1.2.6" ><path fill="rgb(0,0,0)" stroke="rgb(0,0,0)" stroke-width="1" opacity="0" d="M 0 0 L 1500 0 L 1500 2000 L 0 2000 L 0 0 Z M 312 612 L 302 616 L 297 624 L 297 627 L 300 631 L 299 635 L 302 644 L 302 646 L 302 649 L 309 662 L 310 670 L 315 680 L 320 685 L 325 697 L 329 701 L 338 718 L 342 722 L 343 727 L 346 732 L 352 736 L 367 756 L 370 757 L 371 761 L 374 762 L 376 766 L 392 779 Q 398 783 409 784 L 410 788 L 420 792 L 431 793 L 432 794 L 448 794 L 453 797 Q 461 796 466 799 L 483 798 L 500 794 L 525 794 L 531 792 L 541 791 L 549 787 Q 553 788 555 786 L 594 782 L 616 778 L 649 776 L 650 775 L 667 775 L 668 774 L 684 774 L 685 773 L 711 773 L 712 772 L 753 772 L 754 771 L 840 771 L 842 771 L 843 772 L 865 772 L 866 773 L 888 773 L 889 774 L 916 774 L 917 775 L 1024 776 L 1025 777 L 1053 779 L 1061 781 L 1069 781 L 1097 786 L 1114 797 Q 1118 801 1126 801 L 1138 809 L 1154 812 L 1176 810 L 1183 806 L 1187 800 L 1190 798 L 1193 791 L 1192 789 L 1197 778 L 1196 768 L 1194 763 L 1194 755 L 1190 746 L 1190 742 L 1184 734 L 1184 729 L 1181 722 L 1170 706 L 1158 694 L 1156 692 Q 1150 684 1140 680 L 1133 673 Q 1122 671 1117 663 L 1107 658 L 1101 657 L 1096 653 L 1083 648 L 1071 640 L 1067 640 Q 1056 634 1042 631 L 1036 631 L 1027 634 L 1020 643 L 1018 655 L 1014 657 L 1000 660 L 972 663 L 971 664 L 963 664 L 962 665 L 950 665 L 949 666 Q 944 667 943 665 L 918 665 L 917 664 L 895 664 L 894 663 L 875 663 L 874 662 L 857 662 L 856 661 L 841 661 L 840 660 L 826 660 L 825 659 L 811 659 L 810 658 L 797 658 L 796 657 L 769 656 L 768 655 L 734 652 L 733 651 L 723 651 L 717 649 L 707 649 L 690 646 L 682 646 L 673 644 L 640 641 L 633 639 L 624 639 L 615 637 L 607 637 L 606 636 L 597 636 L 590 634 L 573 633 L 565 631 L 540 629 L 525 626 L 497 623 L 490 621 L 484 621 L 483 620 L 476 620 L 475 619 L 420 616 L 409 612 L 312 612 Z M 323 832 L 318 834 L 315 837 L 313 843 L 316 848 L 315 853 L 319 862 L 319 870 L 324 877 L 326 887 L 330 897 L 337 905 L 341 915 L 353 935 L 358 940 L 364 953 L 369 959 L 375 963 L 384 975 Q 386 974 385 977 L 407 997 L 439 1013 L 444 1013 L 454 1016 L 480 1018 L 481 1019 L 512 1020 L 513 1021 L 562 1021 L 563 1020 L 602 1019 L 603 1018 L 631 1018 L 632 1017 L 658 1017 L 659 1016 L 689 1016 L 690 1015 L 933 1015 L 934 1016 L 968 1016 L 969 1017 L 1000 1017 L 1001 1018 L 1049 1019 L 1078 1024 L 1084 1024 L 1090 1026 L 1121 1031 L 1133 1035 L 1141 1040 Q 1144 1039 1142 1045 L 1153 1050 L 1165 1051 Q 1168 1053 1164 1055 L 1166 1056 L 1179 1056 L 1183 1058 L 1186 1056 L 1198 1056 L 1204 1053 Q 1210 1048 1213 1040 L 1211 1038 L 1212 1036 Q 1211 1033 1214 1034 L 1217 1027 Q 1217 1018 1214 1013 L 1214 1004 L 1212 1001 Q 1213 998 1211 999 L 1208 999 L 1210 994 L 1209 990 Q 1208 986 1202 987 Q 1201 983 1204 982 L 1203 975 L 1187 952 L 1181 948 L 1176 942 L 1162 934 L 1160 932 Q 1156 926 1149 925 L 1139 917 L 1130 913 L 1121 913 Q 1118 912 1119 908 L 1107 903 L 1097 896 L 1085 894 L 1078 889 Q 1072 890 1070 887 L 1058 888 L 1054 894 Q 1053 898 1056 899 Q 1059 898 1057 903 L 1055 905 L 1049 907 L 1026 908 L 1025 909 L 1004 909 L 1003 910 L 978 910 L 977 909 L 946 907 L 945 906 L 933 906 L 932 905 L 922 905 L 921 904 L 898 903 L 897 902 L 885 902 L 884 901 L 873 901 L 872 900 L 847 899 L 846 898 L 832 898 L 831 897 L 818 897 L 817 896 L 804 896 L 803 895 L 793 895 L 792 894 L 782 894 L 771 892 L 761 892 L 760 891 L 750 891 L 749 890 L 740 890 L 739 889 L 692 885 L 683 883 L 650 880 L 621 875 L 613 875 L 584 870 L 578 870 L 577 869 L 571 869 L 570 868 L 563 868 L 542 864 L 534 864 L 511 860 L 497 859 L 496 858 L 489 858 L 468 854 L 442 852 L 441 851 L 434 851 L 433 850 L 426 850 L 425 849 L 418 849 L 389 844 L 383 844 L 336 832 L 323 832 Z M 321 1078 L 313 1081 L 308 1089 Q 307 1094 311 1096 L 310 1100 L 314 1113 L 314 1118 L 318 1123 L 320 1136 L 327 1148 L 331 1152 L 334 1160 L 347 1182 L 353 1188 L 353 1191 L 358 1199 Q 357 1201 360 1200 L 363 1205 L 366 1206 L 378 1221 Q 377 1223 380 1222 L 382 1227 L 385 1228 L 388 1233 L 394 1237 Q 396 1236 395 1239 L 403 1245 Q 408 1249 418 1250 Q 421 1257 430 1258 L 445 1261 L 469 1262 L 480 1264 L 504 1264 L 505 1263 L 539 1261 L 540 1260 L 573 1259 L 574 1258 L 606 1258 L 607 1257 L 611 1258 L 612 1257 L 682 1257 L 683 1256 L 771 1256 L 772 1257 L 831 1258 L 832 1259 L 855 1259 L 856 1260 L 925 1262 L 926 1263 L 941 1263 L 942 1264 L 975 1266 L 976 1267 L 987 1267 L 988 1268 L 1048 1273 L 1049 1274 L 1067 1275 L 1068 1276 L 1086 1277 L 1087 1278 L 1107 1280 L 1144 1289 L 1165 1299 Q 1171 1297 1173 1300 Q 1175 1299 1174 1303 L 1176 1304 Q 1184 1303 1188 1306 L 1193 1305 L 1203 1306 L 1205 1309 L 1208 1308 L 1213 1297 L 1219 1290 L 1218 1286 L 1222 1283 L 1224 1279 L 1224 1276 L 1220 1268 L 1221 1264 L 1220 1248 L 1210 1240 L 1213 1235 Q 1213 1227 1209 1224 Q 1210 1220 1207 1221 L 1206 1219 Q 1207 1216 1205 1217 L 1196 1207 L 1190 1203 L 1187 1197 L 1175 1190 L 1173 1188 L 1169 1184 L 1159 1181 Q 1154 1182 1155 1180 L 1152 1177 L 1150 1175 L 1144 1170 L 1141 1170 L 1121 1160 L 1112 1154 L 1108 1154 L 1104 1151 L 1100 1151 L 1088 1146 Q 1081 1145 1078 1148 L 1072 1157 L 1067 1159 L 1052 1160 L 1051 1161 L 1037 1161 L 1036 1162 L 997 1160 L 996 1159 L 982 1159 L 981 1158 L 967 1158 L 966 1157 L 952 1157 L 951 1156 L 919 1155 L 918 1154 L 886 1153 L 885 1152 L 870 1152 L 869 1151 L 858 1151 L 848 1149 L 837 1149 L 836 1148 L 818 1147 L 817 1146 L 808 1146 L 807 1145 L 797 1145 L 787 1143 L 739 1139 L 738 1138 L 728 1138 L 727 1137 L 709 1136 L 708 1135 L 679 1133 L 671 1131 L 655 1130 L 649 1128 L 633 1127 L 626 1125 L 619 1125 L 591 1120 L 550 1115 L 530 1111 L 523 1111 L 516 1109 L 510 1109 L 503 1107 L 472 1103 L 437 1096 L 430 1096 L 422 1094 L 407 1093 L 406 1092 L 398 1092 L 397 1091 L 389 1091 L 358 1085 L 353 1083 L 348 1083 L 334 1079 L 321 1078 Z " /><path fill="rgb(0,0,0)" stroke="rgb(0,0,0)" stroke-width="1" opacity="0" d="M 1206.5 1038 Q 1208.8 1037.3 1208 1039.5 L 1206.5 1038 Z " /><path fill="rgb(0,0,0)" stroke="rgb(0,0,0)" stroke-width="1" opacity="0" d="M 1202.5 1039 L 1203 1041 L 1200 1040.5 L 1202.5 1039 Z " /><path fill="rgb(0,0,0)" stroke="rgb(0,0,0)" stroke-width="1" opacity="0" d="M 1209.5 1288 L 1210 1290 L 1208 1289.5 L 1209.5 1288 Z " /><path fill="rgb(0,0,0)" stroke="rgb(0,0,0)" stroke-width="1" opacity="0.8549019607843137" d="M 311.5 612 L 408.5 612 L 419.5 616 L 474.5 619 L 475.5 620 L 482.5 620 L 483.5 621 L 489.5 621 L 496.5 623 L 524.5 626 L 539.5 629 L 564.5 631 L 572.5 633 L 589.5 634 L 596.5 636 L 605.5 636 L 606.5 637 L 614.5 637 L 623.5 639 L 632.5 639 L 639.5 641 L 672.5 644 L 681.5 646 L 689.5 646 L 706.5 649 L 716.5 649 L 722.5 651 L 732.5 651 L 733.5 652 L 767.5 655 L 768.5 656 L 795.5 657 L 796.5 658 L 809.5 658 L 810.5 659 L 824.5 659 L 825.5 660 L 839.5 660 L 840.5 661 L 855.5 661 L 856.5 662 L 873.5 662 L 874.5 663 L 893.5 663 L 894.5 664 L 916.5 664 L 917.5 665 L 942.5 665 Q 943.7 667.3 948.5 666 L 949.5 665 L 961.5 665 L 962.5 664 L 970.5 664 L 971.5 663 L 999.5 660 L 1013.5 657 L 1018 655 L 1020 642.5 L 1026.5 634 L 1035.5 631 L 1041.5 631 Q 1056 633.5 1066.5 640 L 1070.5 640 L 1082.5 648 L 1095.5 653 L 1100.5 657 L 1106.5 658 L 1116.5 663 Q 1122 670.5 1132.5 673 L 1139.5 680 Q 1149.6 683.9 1156 691.5 L 1157.5 694 L 1170 705.5 L 1181 721.5 L 1184 728.5 L 1184 733.5 L 1190 741.5 L 1190 745.5 L 1194 754.5 L 1194 762.5 L 1196 767.5 L 1197 777.5 L 1192 788.5 L 1193 790.5 L 1190 798 L 1187 799.5 L 1182.5 806 L 1175.5 810 L 1153.5 812 L 1137.5 809 L 1123 800.5 L 1125.5 800 L 1132.5 802 Q 1136.2 807.3 1143.5 809 L 1160.5 810 L 1161.5 809 L 1173.5 808 L 1182 803 Q 1183 797 1188 793.5 Q 1186.8 786.3 1190.5 784 Q 1192.8 784.8 1192 782.5 L 1194 773.5 L 1191 762.5 L 1191 753.5 L 1187 746.5 L 1187 741.5 L 1183.5 736 L 1179 733.5 L 1181 728.5 Q 1173.2 709.8 1159.5 697 L 1154 694 L 1149.5 688 L 1113.5 664 L 1105.5 660 L 1096 658 L 1094.5 655 L 1082.5 650 Q 1076.8 643.7 1067.5 641 L 1062.5 641 L 1053.5 636 L 1042.5 633 L 1033.5 633 Q 1027.8 634.3 1025 638.5 L 1022 645.5 L 1022 650.5 L 1017.5 657 L 1007.5 660 L 989.5 662 L 983.5 664 L 954.5 666 L 953.5 667 L 937.5 667 L 936.5 666 L 909.5 666 L 908.5 665 L 851.5 663 L 850.5 662 L 836.5 662 L 835.5 661 L 820.5 661 L 819.5 660 L 806.5 660 L 805.5 659 L 791.5 659 L 790.5 658 L 754.5 656 L 747.5 654 L 738.5 654 L 737.5 653 L 712.5 651 L 711.5 650 L 687.5 648 L 678.5 646 L 670.5 646 L 653.5 643 L 627.5 641 L 619.5 639 L 610.5 639 L 602.5 637 L 584.5 636 L 577.5 634 L 559.5 633 L 552.5 631 L 520.5 628 L 519.5 627 L 513.5 627 L 491.5 623 L 484.5 623 L 476.5 621 L 423.5 618 L 403.5 613 L 317.5 613 Q 316 615.5 310.5 614 L 303 618.5 L 302 626.5 L 305 631.5 Q 302.3 632.3 303 636.5 Q 308.6 639.9 307 650.5 L 310.5 654 L 313 655.5 Q 315.3 658.7 314 665.5 L 319 672.5 L 320 678.5 L 323.5 682 Q 325.8 681.3 325 683.5 L 328 686.5 L 327 687.5 L 329 694.5 L 332.5 698 L 335 699.5 L 343 716 Q 345.7 714.9 345 717.5 Q 348.6 718.9 348 724.5 L 354.5 733 L 361 737 L 362.5 740 Q 366.5 739.5 367 742.5 L 371 753.5 L 385.5 769 L 393 775.5 L 395.5 779 Q 403.6 783.4 414 784 Q 413.3 787.8 416.5 789 L 429.5 792 L 449.5 793 L 454.5 795 L 484.5 796 L 499.5 793 L 527.5 792 L 538.5 790 L 547.5 786 L 557.5 784 L 589.5 781 L 590.5 780 L 604.5 779 L 611.5 777 L 629.5 776 L 630.5 775 L 677.5 773 L 678.5 772 L 699.5 772 L 700.5 771 L 737.5 771 L 739.5 770 L 741.5 770 L 846.5 770 L 847.5 771 L 891.5 772 L 892.5 773 L 920.5 773 L 921.5 774 L 1028.5 775 L 1029.5 776 L 1038.5 776 L 1039.5 777 L 1070.5 780 L 1093.5 784 L 1101.5 787 L 1122 799.5 L 1119.5 800 L 1096.5 786 L 1068.5 781 L 1044.5 779 L 1043.5 778 L 1034.5 778 L 1023.5 776 L 916.5 775 L 915.5 774 L 888.5 774 L 887.5 773 L 865.5 773 L 864.5 772 L 842.5 772 L 841.5 771 L 839.5 771 L 753.5 771 L 752.5 772 L 711.5 772 L 710.5 773 L 684.5 773 L 683.5 774 L 667.5 774 L 666.5 775 L 649.5 775 L 648.5 776 L 615.5 778 L 593.5 782 L 554.5 786 Q 553.3 788.3 548.5 787 L 540.5 791 L 530.5 792 L 524.5 794 L 499.5 794 L 482.5 798 L 465.5 799 Q 461.1 795.9 452.5 797 L 447.5 794 L 431.5 794 L 430.5 793 L 419.5 792 L 410 787.5 L 408.5 784 Q 398.2 783.3 391.5 779 L 376 765.5 L 373.5 762 L 371 760.5 L 370 757 L 367 755.5 L 352 736 L 346 731.5 L 343 726.5 L 342 721.5 L 338 717.5 L 329 700.5 L 325 696.5 L 320 684.5 L 315 679.5 L 310 669.5 L 309 661.5 L 302 648.5 L 302 645.5 L 302 643.5 L 299 634.5 L 300 630.5 L 297 626.5 L 297 623.5 L 301.5 616 L 311.5 612 Z " /><path fill="rgb(0,0,0)" stroke="rgb(0,0,0)" stroke-width="1" opacity="0.8549019607843137" d="M 322.5 832 L 335.5 832 L 382.5 844 L 388.5 844 L 417.5 849 L 424.5 849 L 425.5 850 L 432.5 850 L 433.5 851 L 440.5 851 L 441.5 852 L 467.5 854 L 488.5 858 L 495.5 858 L 496.5 859 L 510.5 860 L 533.5 864 L 541.5 864 L 562.5 868 L 569.5 868 L 570.5 869 L 576.5 869 L 577.5 870 L 583.5 870 L 612.5 875 L 620.5 875 L 649.5 880 L 682.5 883 L 691.5 885 L 738.5 889 L 739.5 890 L 748.5 890 L 749.5 891 L 759.5 891 L 760.5 892 L 770.5 892 L 781.5 894 L 791.5 894 L 792.5 895 L 802.5 895 L 803.5 896 L 816.5 896 L 817.5 897 L 830.5 897 L 831.5 898 L 845.5 898 L 846.5 899 L 871.5 900 L 872.5 901 L 883.5 901 L 884.5 902 L 896.5 902 L 897.5 903 L 920.5 904 L 921.5 905 L 931.5 905 L 932.5 906 L 944.5 906 L 945.5 907 L 976.5 909 L 977.5 910 L 1002.5 910 L 1003.5 909 L 1024.5 909 L 1025.5 908 L 1048.5 907 L 1054.5 905 L 1057 902.5 Q 1058.5 898.1 1055.5 899 Q 1053 898 1054 893.5 L 1057.5 888 L 1069.5 887 Q 1071.8 889.7 1077.5 889 L 1084.5 894 L 1096.5 896 L 1106.5 903 L 1119 908 Q 1118 911.8 1120.5 913 L 1129.5 913 L 1138.5 917 L 1148.5 925 Q 1156.3 926.2 1160 931.5 L 1161.5 934 L 1176 942 L 1180.5 948 L 1187 952 L 1203 974.5 L 1204 981.5 Q 1201 982.8 1202 987 Q 1207.5 985.8 1209 989.5 L 1210 993.5 L 1208 998.5 L 1210.5 999 Q 1212.8 998.3 1212 1000.5 L 1214 1003.5 L 1214 1012.5 Q 1217.1 1017.9 1217 1026.5 L 1213.5 1034 Q 1211.3 1033.3 1212 1035.5 L 1210.5 1038 L 1213 1039.5 Q 1209.9 1047.9 1203.5 1053 L 1197.5 1056 L 1185.5 1056 L 1182.5 1058 L 1178.5 1056 L 1165.5 1056 L 1164 1054.5 Q 1167.8 1052.8 1164.5 1051 L 1152.5 1050 L 1142 1044.5 Q 1143.9 1039.1 1140.5 1040 L 1132.5 1035 L 1120.5 1031 L 1089.5 1026 L 1083.5 1024 L 1077.5 1024 L 1048.5 1019 L 1000.5 1018 L 999.5 1017 L 968.5 1017 L 967.5 1016 L 933.5 1016 L 932.5 1015 L 689.5 1015 L 688.5 1016 L 658.5 1016 L 657.5 1017 L 631.5 1017 L 630.5 1018 L 602.5 1018 L 601.5 1019 L 562.5 1020 L 561.5 1021 L 512.5 1021 L 511.5 1020 L 480.5 1019 L 479.5 1018 L 453.5 1016 L 443.5 1013 L 438.5 1013 L 406.5 997 L 385 976.5 Q 385.8 974.3 383.5 975 L 374.5 963 L 369 958.5 L 364 952.5 L 358 939.5 L 353 934.5 L 341 914.5 L 337 904.5 L 330 896.5 L 326 886.5 L 324 876.5 L 319 869.5 L 319 861.5 L 315 852.5 L 316 847.5 L 313 842.5 L 315 836.5 L 317.5 834 L 322.5 832 Z M 328 834 L 323 836 L 318 844 Q 322 848 320 858 L 323 864 L 323 866 Q 324 873 329 877 L 331 886 L 335 892 L 334 895 L 337 900 L 342 903 L 345 910 L 345 913 L 351 920 L 352 924 L 357 929 L 359 935 L 371 954 Q 374 958 381 959 L 384 965 L 386 973 L 402 990 L 413 999 L 424 1003 L 439 1011 L 443 1011 L 452 1014 L 460 1014 L 466 1016 L 478 1016 L 488 1018 L 502 1018 L 503 1019 L 577 1019 L 578 1018 L 595 1018 L 596 1017 L 613 1017 L 614 1016 L 646 1016 L 647 1015 L 677 1015 L 678 1014 L 732 1014 L 733 1013 L 741 1013 L 742 1014 L 751 1013 L 753 1013 L 762 1013 L 763 1014 L 936 1014 L 937 1015 L 973 1015 L 974 1016 L 1002 1016 L 1003 1017 L 1050 1018 L 1051 1019 L 1066 1020 L 1123 1030 L 1148 1040 L 1156 1041 L 1162 1046 L 1171 1046 L 1172 1047 L 1176 1045 L 1183 1047 L 1185 1047 L 1188 1046 Q 1194 1042 1194 1032 Q 1191 1031 1192 1035 L 1183 1040 L 1183 1039 Q 1185 1040 1184 1038 Q 1187 1036 1185 1035 L 1191 1026 L 1194 1024 L 1196 1024 L 1202 1026 Q 1201 1020 1204 1018 L 1203 1016 Q 1202 1013 1197 1014 L 1198 1011 Q 1196 1007 1195 1011 L 1193 1009 L 1195 1005 L 1199 1006 L 1201 1005 Q 1202 1000 1199 1001 L 1198 999 Q 1197 992 1199 990 L 1194 987 L 1190 987 L 1188 985 Q 1185 986 1186 982 L 1192 981 L 1192 975 L 1180 958 L 1172 950 L 1168 944 L 1156 937 L 1151 932 L 1136 928 L 1135 925 Q 1131 919 1124 918 Q 1120 919 1121 916 L 1114 915 L 1100 904 Q 1088 903 1082 898 L 1071 896 L 1066 897 L 1063 901 L 1055 907 L 1051 908 L 1033 909 L 1032 910 L 1013 910 L 1012 911 L 976 911 L 965 909 L 953 909 L 952 908 L 942 908 L 941 907 L 931 907 L 930 906 L 918 906 L 917 905 L 907 905 L 906 904 L 883 903 L 882 902 L 869 902 L 868 901 L 856 901 L 855 900 L 828 899 L 827 898 L 813 898 L 812 897 L 801 897 L 800 896 L 790 896 L 789 895 L 779 895 L 778 894 L 768 894 L 757 892 L 747 892 L 746 891 L 708 888 L 707 887 L 698 887 L 689 885 L 673 884 L 672 883 L 662 883 L 647 880 L 625 878 L 618 876 L 610 876 L 581 871 L 575 871 L 574 870 L 568 870 L 567 869 L 546 867 L 545 866 L 513 863 L 506 861 L 499 861 L 470 856 L 420 851 L 407 848 L 375 844 L 337 834 L 328 834 Z M 1207 1038 L 1208 1040 Q 1209 1037 1207 1038 Z M 1203 1039 L 1200 1041 L 1203 1041 L 1203 1039 Z " /><path fill="rgb(0,0,0)" stroke="rgb(0,0,0)" stroke-width="1" opacity="0.8549019607843137" d="M 320.5 1078 L 333.5 1079 L 347.5 1083 L 352.5 1083 L 357.5 1085 L 388.5 1091 L 396.5 1091 L 397.5 1092 L 405.5 1092 L 406.5 1093 L 421.5 1094 L 429.5 1096 L 436.5 1096 L 471.5 1103 L 502.5 1107 L 509.5 1109 L 515.5 1109 L 522.5 1111 L 529.5 1111 L 549.5 1115 L 590.5 1120 L 618.5 1125 L 625.5 1125 L 632.5 1127 L 648.5 1128 L 654.5 1130 L 670.5 1131 L 678.5 1133 L 707.5 1135 L 708.5 1136 L 726.5 1137 L 727.5 1138 L 737.5 1138 L 738.5 1139 L 786.5 1143 L 796.5 1145 L 806.5 1145 L 807.5 1146 L 816.5 1146 L 817.5 1147 L 835.5 1148 L 836.5 1149 L 847.5 1149 L 857.5 1151 L 868.5 1151 L 869.5 1152 L 884.5 1152 L 885.5 1153 L 917.5 1154 L 918.5 1155 L 950.5 1156 L 951.5 1157 L 965.5 1157 L 966.5 1158 L 980.5 1158 L 981.5 1159 L 995.5 1159 L 996.5 1160 L 1035.5 1162 L 1036.5 1161 L 1050.5 1161 L 1051.5 1160 L 1066.5 1159 L 1072 1157 L 1077.5 1148 Q 1080.5 1145 1087.5 1146 L 1099.5 1151 L 1103.5 1151 L 1107.5 1154 L 1111.5 1154 L 1120.5 1160 L 1140.5 1170 L 1143.5 1170 L 1150 1174.5 L 1151.5 1177 L 1155 1179.5 Q 1154.1 1182.5 1158.5 1181 L 1168.5 1184 L 1173 1187.5 L 1174.5 1190 L 1187 1197 L 1190 1203 L 1196 1206.5 L 1204.5 1217 Q 1206.8 1216.3 1206 1218.5 L 1207 1221 Q 1210 1219.8 1209 1223.5 Q 1213.3 1226.7 1213 1234.5 L 1210 1239.5 L 1220 1247.5 L 1221 1263.5 L 1220 1267.5 L 1224 1275.5 L 1224 1278.5 L 1221.5 1283 L 1218 1285.5 L 1219 1289.5 L 1213 1296.5 L 1208 1308 L 1204.5 1309 L 1203 1306 L 1192.5 1305 L 1187.5 1306 Q 1183.5 1303 1175.5 1304 L 1174 1302.5 Q 1175.1 1299.2 1172.5 1300 Q 1170.8 1297.3 1164.5 1299 L 1143.5 1289 L 1106.5 1280 L 1086.5 1278 L 1085.5 1277 L 1067.5 1276 L 1066.5 1275 L 1048.5 1274 L 1047.5 1273 L 987.5 1268 L 986.5 1267 L 975.5 1267 L 974.5 1266 L 941.5 1264 L 940.5 1263 L 925.5 1263 L 924.5 1262 L 855.5 1260 L 854.5 1259 L 831.5 1259 L 830.5 1258 L 771.5 1257 L 770.5 1256 L 682.5 1256 L 681.5 1257 L 611.5 1257 L 610.5 1258 L 606.5 1257 L 605.5 1258 L 573.5 1258 L 572.5 1259 L 539.5 1260 L 538.5 1261 L 504.5 1263 L 503.5 1264 L 479.5 1264 L 468.5 1262 L 444.5 1261 L 429.5 1258 Q 421 1256.5 417.5 1250 Q 408.4 1249.1 402.5 1245 L 395 1239 Q 396.1 1236.3 393.5 1237 L 388 1233 L 384.5 1228 L 382 1226.5 L 379.5 1222 Q 377.3 1222.8 378 1220.5 L 365.5 1206 L 363 1204.5 L 359.5 1200 Q 357.3 1200.8 358 1198.5 L 353 1190.5 L 353 1187.5 L 347 1181.5 L 334 1159.5 L 331 1151.5 L 327 1147.5 L 320 1135.5 L 318 1122.5 L 314 1117.5 L 314 1112.5 L 310 1099.5 L 311 1095.5 Q 307.4 1094.1 308 1088.5 L 312.5 1081 L 320.5 1078 Z M 325 1080 L 318 1082 L 312 1090 L 316 1097 L 314 1101 L 314 1104 L 317 1107 L 318 1111 L 318 1118 L 322 1120 Q 326 1123 325 1133 L 330 1139 L 329 1142 L 330 1144 Q 329 1146 332 1145 L 338 1152 Q 337 1157 340 1160 Q 339 1162 342 1161 L 348 1170 L 353 1181 L 358 1187 L 359 1191 L 367 1201 L 367 1203 L 376 1205 L 379 1211 Q 378 1216 381 1219 L 386 1225 Q 385 1227 388 1226 L 388 1228 L 390 1228 L 406 1244 Q 412 1249 422 1250 L 430 1256 L 442 1259 L 465 1260 L 466 1261 L 476 1261 L 477 1262 L 509 1262 L 510 1261 L 531 1260 L 532 1259 L 547 1259 L 549 1259 L 551 1258 L 564 1258 L 565 1257 L 588 1257 L 589 1256 L 669 1256 L 671 1256 L 673 1255 L 776 1255 L 777 1256 L 834 1257 L 836 1257 L 837 1258 L 859 1258 L 860 1259 L 883 1259 L 884 1260 L 907 1260 L 908 1261 L 944 1262 L 945 1263 L 978 1265 L 989 1267 L 999 1267 L 1000 1268 L 1011 1268 L 1021 1270 L 1070 1274 L 1078 1276 L 1097 1277 L 1142 1287 L 1167 1297 Q 1172 1296 1174 1298 Q 1187 1300 1196 1296 L 1197 1293 L 1199 1293 L 1200 1289 L 1206 1285 L 1208 1282 L 1207 1280 L 1210 1272 L 1209 1266 L 1206 1264 L 1209 1255 L 1208 1250 L 1200 1239 L 1202 1234 L 1204 1234 L 1205 1232 L 1204 1229 L 1203 1229 L 1196 1222 L 1196 1218 L 1192 1214 Q 1193 1209 1190 1208 L 1184 1205 L 1180 1199 L 1166 1190 L 1164 1190 L 1160 1186 L 1149 1185 L 1147 1182 Q 1148 1179 1146 1180 L 1144 1177 L 1141 1175 L 1133 1175 L 1132 1172 Q 1129 1173 1130 1171 L 1119 1165 L 1116 1162 Q 1113 1163 1114 1160 Q 1109 1161 1108 1158 L 1106 1159 L 1087 1152 L 1082 1152 L 1069 1160 L 1057 1161 L 1056 1162 L 1044 1162 L 1043 1163 L 1022 1163 L 1021 1162 L 993 1161 L 992 1160 L 947 1158 L 946 1157 L 915 1156 L 914 1155 L 900 1155 L 899 1154 L 883 1154 L 882 1153 L 867 1153 L 866 1152 L 845 1151 L 844 1150 L 826 1149 L 825 1148 L 805 1147 L 804 1146 L 766 1143 L 765 1142 L 755 1142 L 754 1141 L 706 1137 L 705 1136 L 686 1135 L 677 1133 L 668 1133 L 653 1130 L 646 1130 L 631 1127 L 616 1126 L 609 1124 L 602 1124 L 581 1120 L 554 1117 L 547 1115 L 540 1115 L 520 1111 L 506 1110 L 439 1098 L 385 1092 L 335 1081 L 325 1080 Z M 1210 1288 L 1208 1290 L 1210 1290 L 1210 1288 Z " /><path fill="rgb(0,0,0)" stroke="rgb(0,0,0)" stroke-width="1" opacity="0.996078431372549" d="M 317.5 613 L 403.5 613 L 423.5 618 L 476.5 621 L 477.5 622 L 491.5 623 L 520.5 628 L 552.5 631 L 559.5 633 L 577.5 634 L 584.5 636 L 593.5 636 L 594.5 637 L 619.5 639 L 620.5 640 L 635.5 641 L 644.5 643 L 653.5 643 L 654.5 644 L 678.5 646 L 687.5 648 L 695.5 648 L 712.5 651 L 721.5 651 L 738.5 654 L 747.5 654 L 754.5 656 L 790.5 658 L 791.5 659 L 805.5 659 L 806.5 660 L 819.5 660 L 820.5 661 L 850.5 662 L 851.5 663 L 953.5 667 L 954.5 666 L 983.5 664 L 989.5 662 L 1007.5 660 L 1015.5 658 L 1020 654.5 L 1022 650.5 L 1023 642.5 L 1028.5 635 Q 1033.2 631.7 1042.5 633 L 1053.5 636 L 1059.5 640 L 1072.5 643 L 1082.5 650 L 1096 656.5 Q 1095.3 658.8 1097.5 658 Q 1107 659.5 1113.5 664 Q 1120.6 671.4 1131.5 675 L 1137.5 681 L 1149.5 688 L 1154 692.5 Q 1153.3 694.8 1155.5 694 L 1163 700.5 L 1180 724.5 L 1181 730.5 L 1179 733.5 L 1185 737.5 Q 1187.8 740.2 1187 746.5 L 1191 753.5 L 1191 762.5 L 1194 773.5 L 1192 784 L 1189 785.5 L 1188 793.5 Q 1183 797 1182 803 L 1173.5 808 L 1153.5 810 L 1152.5 809 L 1140.5 808 L 1132.5 802 L 1122.5 800 L 1101.5 787 L 1093.5 784 L 1070.5 780 L 1046.5 778 L 1038.5 776 L 1029.5 776 L 1028.5 775 L 921.5 774 L 920.5 773 L 892.5 773 L 891.5 772 L 868.5 772 L 867.5 771 L 847.5 771 L 846.5 770 L 741.5 770 L 739.5 770 L 737.5 771 L 700.5 771 L 699.5 772 L 678.5 772 L 677.5 773 L 630.5 775 L 629.5 776 L 611.5 777 L 589.5 781 L 557.5 784 L 547.5 786 L 538.5 790 L 527.5 792 L 499.5 793 L 484.5 796 L 465.5 796 L 464.5 795 L 454.5 795 L 449.5 793 L 438.5 793 L 437.5 792 L 423.5 791 L 418.5 790 L 414 786.5 Q 415.3 782.8 411.5 784 L 395.5 779 L 393 776.5 L 386.5 769 L 375 758.5 L 369 750.5 Q 369 743 364.5 740 L 361 738.5 Q 361.8 736.3 359.5 737 L 352 730.5 L 352 728.5 L 348 724.5 L 348 721.5 L 345 716 Q 342.3 717.1 343 714.5 L 333.5 698 L 329 694.5 L 327 687.5 L 328 686.5 L 325 683.5 Q 325.8 681.3 323.5 682 L 320 678.5 L 319 672.5 L 314 665.5 Q 315.7 656.8 311.5 654 L 307 650.5 L 307 642.5 L 303 636.5 L 303 633.5 L 305 630.5 Q 300.7 628.3 302 620.5 L 304.5 617 L 310.5 614 Q 316 615.5 317.5 613 Z " /><path fill="rgb(0,0,0)" stroke="rgb(0,0,0)" stroke-width="1" opacity="0.996078431372549" d="M 327.5 834 L 336.5 834 L 374.5 844 L 406.5 848 L 419.5 851 L 469.5 856 L 498.5 861 L 505.5 861 L 512.5 863 L 544.5 866 L 545.5 867 L 566.5 869 L 567.5 870 L 573.5 870 L 574.5 871 L 580.5 871 L 609.5 876 L 617.5 876 L 624.5 878 L 646.5 880 L 661.5 883 L 671.5 883 L 672.5 884 L 688.5 885 L 697.5 887 L 706.5 887 L 707.5 888 L 745.5 891 L 746.5 892 L 756.5 892 L 767.5 894 L 777.5 894 L 778.5 895 L 788.5 895 L 789.5 896 L 799.5 896 L 800.5 897 L 811.5 897 L 812.5 898 L 826.5 898 L 827.5 899 L 854.5 900 L 855.5 901 L 867.5 901 L 868.5 902 L 881.5 902 L 882.5 903 L 905.5 904 L 906.5 905 L 916.5 905 L 917.5 906 L 929.5 906 L 930.5 907 L 940.5 907 L 941.5 908 L 951.5 908 L 952.5 909 L 964.5 909 L 975.5 911 L 1011.5 911 L 1012.5 910 L 1031.5 910 L 1032.5 909 L 1050.5 908 L 1054.5 907 L 1063 900.5 L 1065.5 897 L 1070.5 896 L 1081.5 898 Q 1088.2 903.2 1099.5 904 L 1113.5 915 L 1121 916 Q 1119.8 919 1123.5 918 Q 1131.3 919.2 1135 924.5 L 1136 928 L 1150.5 932 L 1155.5 937 L 1168 944 L 1171.5 950 L 1180 957.5 L 1192 974.5 L 1192 981 L 1186 982 Q 1184.5 985.7 1187.5 985 L 1189.5 987 L 1193.5 987 L 1199 990 Q 1197.3 992.4 1198 998.5 L 1199 1001 Q 1202.3 999.7 1201 1004.5 L 1198.5 1006 L 1194.5 1005 L 1193 1008.5 L 1194.5 1011 Q 1196.3 1007.3 1198 1010.5 L 1197 1013.5 Q 1201.6 1012.9 1203 1015.5 L 1204 1017.5 Q 1201.2 1020.5 1202 1026 L 1195.5 1024 L 1193.5 1024 L 1191 1025.5 L 1185 1034.5 L 1188.5 1037 L 1192 1035 Q 1190.7 1030.9 1194 1032 Q 1194.4 1042.1 1187.5 1046 L 1184.5 1047 L 1182.5 1047 L 1175.5 1045 L 1171.5 1047 L 1170.5 1046 L 1161.5 1046 L 1155.5 1041 L 1147.5 1040 L 1122.5 1030 L 1065.5 1020 L 1050.5 1019 L 1049.5 1018 L 1002.5 1017 L 1001.5 1016 L 973.5 1016 L 972.5 1015 L 936.5 1015 L 935.5 1014 L 762.5 1014 L 761.5 1013 L 752.5 1013 L 750.5 1013 L 741.5 1014 L 740.5 1013 L 732.5 1013 L 731.5 1014 L 677.5 1014 L 676.5 1015 L 646.5 1015 L 645.5 1016 L 613.5 1016 L 612.5 1017 L 595.5 1017 L 594.5 1018 L 577.5 1018 L 576.5 1019 L 502.5 1019 L 501.5 1018 L 487.5 1018 L 477.5 1016 L 465.5 1016 L 459.5 1014 L 451.5 1014 L 442.5 1011 L 438.5 1011 L 423.5 1003 L 412.5 999 L 402 989.5 L 386 972.5 L 384 964.5 L 380.5 959 Q 373.9 958.1 371 953.5 L 359 934.5 L 357 928.5 L 352 923.5 L 351 919.5 L 345 912.5 L 345 909.5 L 342 903 L 337 899.5 L 334 894.5 L 335 891.5 L 331 885.5 L 329 876.5 Q 324.1 872.9 323 865.5 L 323 863.5 L 320 857.5 Q 321.7 847.8 318 843.5 L 322.5 836 L 327.5 834 Z M 1186 1036 L 1184 1038 Q 1183 1040 1186 1039 Q 1189 1038 1186 1036 Z " /><path fill="rgb(0,0,0)" stroke="rgb(0,0,0)" stroke-width="1" opacity="0.996078431372549" d="M 324.5 1080 L 334.5 1081 L 384.5 1092 L 438.5 1098 L 505.5 1110 L 519.5 1111 L 539.5 1115 L 546.5 1115 L 553.5 1117 L 580.5 1120 L 601.5 1124 L 608.5 1124 L 615.5 1126 L 630.5 1127 L 645.5 1130 L 652.5 1130 L 667.5 1133 L 676.5 1133 L 685.5 1135 L 704.5 1136 L 705.5 1137 L 753.5 1141 L 754.5 1142 L 764.5 1142 L 765.5 1143 L 803.5 1146 L 804.5 1147 L 824.5 1148 L 825.5 1149 L 843.5 1150 L 844.5 1151 L 865.5 1152 L 866.5 1153 L 881.5 1153 L 882.5 1154 L 898.5 1154 L 899.5 1155 L 913.5 1155 L 914.5 1156 L 945.5 1157 L 946.5 1158 L 991.5 1160 L 992.5 1161 L 1020.5 1162 L 1021.5 1163 L 1042.5 1163 L 1043.5 1162 L 1055.5 1162 L 1056.5 1161 L 1068.5 1160 L 1081.5 1152 L 1086.5 1152 L 1105.5 1159 L 1107.5 1158 Q 1108.9 1161.3 1114 1160 Q 1112.9 1162.7 1115.5 1162 L 1118.5 1165 L 1130 1170.5 Q 1129.3 1172.8 1131.5 1172 L 1133 1175 L 1140.5 1175 L 1144 1177 L 1145.5 1180 Q 1147.8 1179.3 1147 1181.5 L 1149 1185 L 1159.5 1186 L 1163.5 1190 L 1165.5 1190 L 1180 1199 L 1183.5 1205 L 1190 1207.5 Q 1192.6 1208.9 1192 1213.5 L 1196 1217.5 L 1196 1221.5 L 1202.5 1229 L 1204 1228.5 L 1205 1231.5 L 1203.5 1234 L 1202 1233.5 L 1200 1238.5 L 1208 1249.5 L 1209 1254.5 L 1206 1264 L 1209 1265.5 L 1210 1271.5 L 1207 1279.5 L 1208 1281.5 L 1206 1285 L 1200 1288.5 L 1198.5 1293 L 1197 1292.5 L 1195.5 1296 Q 1187.5 1300 1173.5 1298 Q 1172 1295.5 1166.5 1297 L 1141.5 1287 L 1096.5 1277 L 1077.5 1276 L 1069.5 1274 L 1020.5 1270 L 1010.5 1268 L 999.5 1268 L 998.5 1267 L 988.5 1267 L 977.5 1265 L 944.5 1263 L 943.5 1262 L 907.5 1261 L 906.5 1260 L 883.5 1260 L 882.5 1259 L 859.5 1259 L 858.5 1258 L 836.5 1258 L 835.5 1257 L 833.5 1257 L 776.5 1256 L 775.5 1255 L 672.5 1255 L 670.5 1256 L 668.5 1256 L 588.5 1256 L 587.5 1257 L 564.5 1257 L 563.5 1258 L 550.5 1258 L 548.5 1259 L 546.5 1259 L 531.5 1259 L 530.5 1260 L 509.5 1261 L 508.5 1262 L 476.5 1262 L 475.5 1261 L 465.5 1261 L 464.5 1260 L 441.5 1259 L 429.5 1256 L 421.5 1250 Q 411.5 1249 405.5 1244 L 389.5 1228 L 388 1228 L 388 1226 Q 385.3 1227.1 386 1224.5 L 381 1218.5 Q 378.3 1216.2 379 1210.5 L 376 1205 L 367 1203 L 367 1200.5 L 359 1190.5 L 358 1186.5 L 353 1180.5 L 348 1169.5 L 341.5 1161 Q 339.3 1161.8 340 1159.5 Q 337.3 1157.2 338 1151.5 L 331.5 1145 Q 329.3 1145.8 330 1143.5 L 329 1141.5 L 330 1138.5 L 325 1132.5 Q 326.1 1123.5 321.5 1120 L 318 1117.5 L 318 1110.5 L 317 1106.5 L 314 1103.5 L 314 1100.5 L 316 1096.5 L 312 1089.5 L 317.5 1082 L 324.5 1080 Z " /></svg>